<?xml version="1.0" standalone="no"?><!DOCTYPE svg PUBLIC "-//W3C//DTD SVG 1.1//EN" "http://www.w3.org/Graphics/SVG/1.1/DTD/svg11.dtd"><svg t="1655923030824" class="icon" viewBox="0 0 1024 1024" version="1.1" xmlns="http://www.w3.org/2000/svg" p-id="1503" xmlns:xlink="http://www.w3.org/1999/xlink" width="200" height="200"><defs><style type="text/css">@font-face { font-family: feedback-iconfont; src: url("//at.alicdn.com/t/font_1031158_u69w8yhxdu.woff2?t=1630033759944") format("woff2"), url("//at.alicdn.com/t/font_1031158_u69w8yhxdu.woff?t=1630033759944") format("woff"), url("//at.alicdn.com/t/font_1031158_u69w8yhxdu.ttf?t=1630033759944") format("truetype"); }
</style></defs><path d="M891.5 237.3c-9.7-13.5-25.5-21.5-42.1-21.5-13.9 0-26.9 5.4-36.8 15.2-18.1 18.1-20.4 46.4-5.3 67.3 16 22.2 29.5 46.2 40.2 71.5 19 45 28.6 92.8 28.6 142.2 0 49.4-9.6 97.2-28.6 142.2-18.3 43.5-44.6 82.5-78.1 116.1-33.5 33.5-72.4 59.9-115.8 78.2-44.8 19-92.5 28.6-141.6 28.6-49.2 0-96.8-9.6-141.6-28.6-43.3-18.4-82.3-44.7-115.8-78.2-30.2-30.3-54.6-65.1-72.5-103.6h56.7c4 12.3 12.2 22.5 23.4 29l223.3 128.9c8.5 5.6 18.5 8.6 28.8 8.6h0.1c10.3 0 20.2-3 28.7-8.6l218.6-126.2a52.06 52.06 0 0 0 25.8-40.5c0.4-2.7 0.7-5.5 0.7-8.2V382.3c0-2.1-0.1-4.2-0.4-6.2l-0.1-0.8c-0.1-0.4-0.1-0.9-0.2-1.3-2.4-15.6-11.7-29.1-25.4-37L538.3 207.8c-7.9-4.6-16.9-7-26-7-5.7 0-11.3 0.9-16.7 2.7-3.5 1.1-6.9 2.6-10 4.5L262.1 337c-7.7 4.4-14.1 10.8-18.6 18.3-0.2 0.3-0.3 0.5-0.5 0.8 0 0.1-0.3 0.6-0.4 0.8-4.3 7.7-6.6 16.5-6.6 25.3v264.2h-62.6c-16.9-42.8-25.5-88-25.5-134.6 0-49.4 9.6-97.2 28.6-142.2 18.3-43.5 44.6-82.5 78.1-116.1 33.5-33.5 72.4-59.9 115.8-78.2 44.8-19 92.5-28.6 141.6-28.6s96.8 9.6 141.6 28.6c26.6 11.3 51.8 25.7 74.8 42.9 9 6.7 19.8 10.3 31.1 10.3 13.9 0 26.9-5.4 36.8-15.2 10.7-10.7 16.2-25.5 15.1-40.6a51.89 51.89 0 0 0-20.8-37.9c-81-60.2-177.4-92.1-278.5-92.1-63.2 0-124.5 12.4-182.2 36.9C274 103.4 224 137.2 181 180.3s-76.7 93.3-100.3 149.1C56.3 387.2 43.9 448.7 43.9 512s12.4 124.8 36.8 182.6c23.6 55.9 57.3 106 100.3 149.1 43 43.1 93 76.9 148.8 100.5 57.7 24.5 119 36.9 182.2 36.9s124.5-12.4 182.2-36.9C750 920.6 800 886.8 843 843.7c43-43.1 76.7-93.3 100.3-149.1 24.4-57.8 36.8-119.3 36.8-182.6 0-99.4-30.7-194.4-88.6-274.7zM542.1 532.1l76-43.9c6.6 2.8 13.7 4.2 21 4.2 2.7 0 5.4-0.2 8.1-0.6 14.3-2.1 27-9.7 35.6-21.4 0.5-0.6 0.9-1.2 1.3-1.8V623l-142 82V532.1zM664 404.6c-0.7-2-1.5-3.9-2.6-5.6l22.7 13.1v1.1c-5.3-5.1-12.4-8.3-20.1-8.6z m-28.4-20.4c-1.5 0-3 0.1-4.4 0.3-26.9 4-46.2 27.2-46.3 53.6l-71.7 41.4-144.9-83.6 143.8-83 123.6 71.4c0.1-0.1 0-0.1-0.1-0.1zM482.1 530.8v171.6l-142.1-82V448.8l142.1 82z" fill="#BBFFFF" p-id="1504"></path><path d="M767.7 377.2c-1.4-9.3-6.9-17.8-15.6-22.8L528.3 225.2c-8.3-4.8-17.9-5.4-26.4-2.6-2.2 0.7-4.3 1.6-6.3 2.8l-223.5 129c-4.9 2.8-8.8 6.8-11.5 11.3l-0.3 0.6c-0.1 0.1-0.2 0.3-0.2 0.4-2.6 4.6-4.1 10-4.1 15.6v267.5c0 3 0.4 5.9 1.2 8.7 2.1 8 7.2 15.2 15 19.7l223.9 129.3c5.4 3.7 11.7 5.6 18.2 5.6s12.8-1.9 18.2-5.6L751.6 681c9.6-5.6 15.3-15.3 15.9-25.7 0.3-1.9 0.5-3.8 0.5-5.8V382.3c0-1.3-0.1-2.6-0.2-3.9 0-0.1 0-0.3-0.1-0.4 0.1-0.3 0-0.5 0-0.8zM502.1 737.1L320 632V414.2l182.1 105.1v217.8z m202-102.5l-182 105.1V520.6l96-55.4c0.2 0.2 0.5 0.4 0.7 0.6 6 4.4 13 6.7 20.3 6.7 1.7 0 3.4-0.1 5.1-0.4 9-1.3 17-6.1 22.5-13.5 5.4-7.4 7.7-16.4 6.3-25.4-0.8-5.5-5.9-9.2-11.4-8.4-5.5 0.8-9.2 5.9-8.4 11.4 0.6 3.8-0.4 7.5-2.6 10.6-2.3 3.1-5.6 5.1-9.4 5.6-3.8 0.6-7.5-0.4-10.6-2.6-3.1-2.3-5.1-5.6-5.6-9.4-1.2-7.8 4.2-15 12-16.2 5.5-0.8 9.2-5.9 8.4-11.4-0.8-5.5-5.9-9.2-11.4-8.4-18.7 2.8-31.6 20.3-28.8 38.9 0.3 1.9 0.7 3.7 1.3 5.4l-93.4 53.9-184.8-106.7 183.8-106.1L704 400.6v234z" fill="#5DD8F9" p-id="1505"></path><path d="M875.3 249c-11.5-15.9-34.6-17.7-48.5-3.8-11.1 11.1-12.5 28.7-3.3 41.4 16.9 23.4 31.1 48.6 42.4 75.5 20 47.5 30.2 97.9 30.2 149.9s-10.2 102.5-30.2 149.9c-19.4 45.9-47.1 87.1-82.4 122.4-35.3 35.4-76.4 63.1-122.1 82.5C614.1 886.9 563.8 897 512 897s-102.1-10-149.4-30.1c-45.7-19.4-86.8-47.2-122.1-82.5-35.3-35.4-63-76.6-82.4-122.4-20-47.5-30.2-97.9-30.2-149.9s10.2-102.5 30.2-149.9c19.4-45.9 47.1-87.1 82.4-122.4 35.3-35.4 76.4-63.1 122.1-82.5 47.3-20.1 97.6-30.2 149.4-30.2s102.1 10.2 149.4 30.2c28.2 11.9 54.6 27.1 79 45.2 12.7 9.5 30.5 8.2 41.7-3 13.8-13.8 12.1-36.6-3.5-48.3C704.1 95.6 611.9 62.9 512 62.9c-247.5 0-448.1 201-448.1 449.1S264.5 961.1 512 961.1s448.1-201 448.1-449.1c0-98.2-31.5-189.1-84.8-263z" fill="#5DD8F9" p-id="1506"></path></svg>